<svg version="1.1" viewBox="0 0 96 96" xmlns="http://www.w3.org/2000/svg" xmlns:xlink="http://www.w3.org/1999/xlink" id="Icons" overflow="hidden"><path d=" M 66.1 79.4 L 74.6 70.9 L 77.4 73.7 L 68.9 82.2 L 66.1 79.4 Z M 63.2 59.6 L 66 62.4 L 57.5 70.9 L 54.7 68.1 L 63.2 59.6 Z M 73.9 49 L 76.7 51.8 L 68.9 59.6 L 66.1 56.8 L 73.9 49 Z M 71.7 68.1 L 63.2 76.6 L 60.4 73.8 L 68.9 65.3 L 71.7 68.1 Z M 71.7 62.4 L 79.5 54.6 L 82.3 57.4 L 74.5 65.2 L 71.7 62.4 Z M 80.2 70.9 L 77.4 68.1 L 85.2 60.3 L 88 63.1 L 80.2 70.9 Z M 22.9 75.9 L 27.2 71.6 L 31.5 75.9 L 22.9 75.9 Z M 24.4 68.8 L 20 73.2 L 20 64.4 L 24.4 68.8 Z M 27.9 41.2 L 25.1 38.4 L 33.6 29.9 L 36.4 32.7 L 27.9 41.2 Z M 22.2 18.6 L 25 21.4 L 16.5 29.9 L 13.7 27.1 L 22.2 18.6 Z M 35.7 10.8 L 27.9 18.6 L 25.1 15.8 L 32.8 8 L 35.7 10.8 Z M 30.7 27.1 L 22.2 35.6 L 19.4 32.8 L 27.9 24.3 L 30.7 27.1 Z M 30.7 21.4 L 38.5 13.6 L 41.3 16.4 L 33.5 24.2 L 30.7 21.4 Z M 39.2 29.9 L 36.4 27.1 L 44.2 19.3 L 47 22.1 L 39.2 29.9 Z M 90.8 60.3 L 76.7 46.2 C 75.9 45.4 74.9 45 73.9 45 C 72.9 45 71.8 45.4 71.1 46.2 L 63.2 54 L 60.4 51.2 L 70.3 41.3 C 71.1 40.5 71.5 39.5 71.5 38.5 C 71.5 37.4 71.1 36.4 70.3 35.7 L 68.7 34 L 72.4 32 L 64 23.6 L 62 27.3 L 60.4 25.7 C 59.6 24.9 58.6 24.5 57.6 24.5 C 56.5 24.5 55.5 24.9 54.8 25.7 L 44.9 35.6 L 42 32.8 L 49.8 25 C 50.6 24.2 51 23.2 51 22.2 C 51 21.1 50.6 20.1 49.8 19.4 L 35.7 5.2 C 34.9 4.4 33.9 4 32.8 4 C 31.7 4 30.7 4.4 30 5.2 L 10.9 24.3 C 10.2 25 9.8 26 9.8 27.1 C 9.8 28.2 10.2 29.2 11 29.9 L 25.1 44 C 25.9 44.8 26.9 45.2 27.9 45.2 C 28.9 45.2 30 44.8 30.7 44 L 39.2 35.5 L 42 38.3 L 32.1 48.2 C 31.3 49 30.9 50 30.9 51 C 30.9 52.1 31.3 53.1 32.1 53.8 L 35 56.6 L 32 59.6 C 25.3 54.3 17.2 53.1 13 57.4 L 16 60.3 L 15.9 75.3 C 13.9 75.6 12.4 77.4 12.5 79.5 C 12.6 81.6 14.3 83.2 16.4 83.2 C 18.5 83.3 20.2 81.7 20.5 79.7 L 35.5 79.8 L 38.5 82.8 C 42.7 78.6 41.6 70.5 36.3 63.8 L 39.3 60.8 L 42 63.8 C 42.8 64.6 43.8 65 44.8 65 C 45.9 65 46.9 64.6 47.6 63.8 L 57.5 53.9 L 60.3 56.7 L 51.8 65.2 C 51 66 50.6 67 50.6 68 C 50.6 69 51 70.1 51.8 70.8 L 66 84.9 C 66.8 85.7 67.8 86.1 68.8 86.1 C 69.9 86.1 70.9 85.7 71.6 84.9 L 90.8 66 C 91.6 65.2 92 64.2 92 63.2 C 92 62.1 91.6 61.1 90.8 60.3 Z"/></svg>