<svg version="1.1" viewBox="0 0 96 96" xmlns="http://www.w3.org/2000/svg" xmlns:xlink="http://www.w3.org/1999/xlink" id="Icons" overflow="hidden"><g><path d=" M 70.1 20 L 70.1 54 L 53.3 37.2 L 70.1 20 Z M 33.1 17 L 67.4 17 L 50.5 34.5 L 33.1 17 Z M 32.1 71.2 L 28.5 67.6 L 32.1 59.8 L 35.7 67.6 L 32.1 71.2 Z M 34.9 74.1 L 37.5 71.5 L 42.1 81.3 L 34.9 74.1 Z M 22.1 81.2 L 26.7 71.4 L 29.3 74 L 22.1 81.2 Z M 32.1 76.8 L 38.3 83 L 25.9 83 L 32.1 76.8 Z M 79.2 63.2 L 74.1 58 L 74.1 19 L 75.1 18 C 76.8 16.3 76.8 13.7 75.1 12 C 73.4 10.3 70.8 10.3 69.1 12 L 68.1 13 L 29.1 13 L 25 9 C 21.9 14.6 20.1 21.2 20.1 28.1 C 20.1 38.3 23.9 47.5 30.1 54.6 L 17 82.8 C 16.6 83.7 16.6 84.8 17.2 85.7 C 17.8 86.6 18.7 87.1 19.7 87.1 L 44.6 87.1 C 45.6 87.1 46.6 86.6 47.1 85.7 C 47.6 84.8 47.7 83.8 47.3 82.8 L 36.9 60.6 C 43.5 65.2 51.5 68 60.1 68 C 67 68.1 73.5 66.2 79.2 63.2 Z"/></g></svg>