<svg version="1.1" viewBox="0 0 96 96" xmlns="http://www.w3.org/2000/svg" xmlns:xlink="http://www.w3.org/1999/xlink" id="Icons" overflow="hidden"><path d=" M 87.8 19 L 23.8 19 C 21.6 19 19.8 20.8 19.8 23 L 19.8 37.5 C 20.9 37.2 22.2 37 23.4 37 C 24.2 37 25 37.1 25.8 37.2 L 25.8 25 L 85.8 25 L 85.8 63 L 51.9 63 L 46.2 69 L 87.8 69 C 90 69 91.8 67.2 91.8 65 L 91.8 23 C 91.8 20.8 90 19 87.8 19"/><path d=" M 23.5 58 C 28.2 58 32 54.2 32 49.5 C 32 44.8 28.2 41 23.5 41 C 18.8 41 15 44.8 15 49.5 C 14.9 54.2 18.8 58 23.5 58"/><path d=" M 56.2 48.1 C 54.9 46.1 52.3 45.6 50.3 46.8 C 49.9 47 49.7 47.4 49.5 47.6 L 34.9 62.8 C 33.5 62.1 32 61.5 30.5 61 C 28.2 60.6 25.8 60.1 23.5 60.1 C 21.2 60.1 18.8 60.5 16.5 61.2 C 13.1 62.1 10.1 63.8 7.6 65.9 C 7 66.5 6.5 67.4 6.3 68.2 L 4.2 77 L 34.1 77 L 34.1 76.9 L 42.6 67 L 55.7 53.2 C 56.9 52 57.3 49.7 56.2 48.1"/></svg>