<svg version="1.1" viewBox="0 0 96 96" xmlns="http://www.w3.org/2000/svg" xmlns:xlink="http://www.w3.org/1999/xlink" id="Icons" overflow="hidden"><path d=" M 74.4 73.3 L 56.4 67.1 L 56.3 67.1 L 49.1 64.6 L 82.8 20.1 L 74.4 73.3 Z M 51.9 69.9 L 45.3 76.5 L 47.1 68.3 L 51.9 69.9 L 51.9 69.9 Z M 43.9 64.8 C 43.7 65 43.6 65.3 43.5 65.6 L 43.2 66.9 L 41.2 76 L 36.4 62 L 73.8 26 L 45.1 63.3 L 43.9 64.8 Z M 15 53 L 73.6 21.8 L 33.5 59.3 L 15 53 Z M 87.2 11.4 C 86.6 10.9 85.7 10.9 85 11.3 L 9.1 51.6 C 8.4 52 8 52.7 8 53.5 C 8 54.3 8.6 55 9.3 55.2 L 30.1 62.3 L 32.7 63.2 L 33.3 64.9 L 39.5 83.5 L 39.5 83.6 L 39.5 83.7 C 39.7 84.3 40.3 84.8 41 85 C 41.7 85.2 42.4 85 42.9 84.5 L 43 84.4 L 43.6 83.8 L 56.2 71.4 L 75.4 78 C 76 78.2 76.6 78.1 77.1 77.8 C 77.6 77.5 78 77 78.1 76.4 L 88.1 13.4 C 88.2 12.5 87.8 11.8 87.2 11.4 Z"/></svg>