<svg xmlns="http://www.w3.org/2000/svg" viewBox="0 0 58.71 73.14"><title>Asset 1</title><g id="Layer_2" data-name="Layer 2"><g id="Layer_1-2" data-name="Layer 1"><path d="M58.71,53.75a4.59,4.59,0,0,0-1.39-3.29h0L50,43.58h4.1a4.61,4.61,0,0,0,3.22-7.9h0L44.87,24h0a4.59,4.59,0,0,0-3.2-1.35H17.1A4.6,4.6,0,0,0,13.84,24h0L1.39,35.67h0a4.61,4.61,0,0,0,3.22,7.9h4.1L1.39,50.45h0a4.61,4.61,0,0,0,3.22,7.9h4.1L1.39,65.23h0a4.61,4.61,0,0,0,3.22,7.9H54.1a4.61,4.61,0,0,0,3.22-7.9h0L50,58.36h4.1A4.61,4.61,0,0,0,58.71,53.75Z"/><path d="M11.73,20.33a10.16,10.16,0,0,0,9.6-6.83H37.38A10.16,10.16,0,1,0,37,8.33H21.72a10.16,10.16,0,1,0-10,12Z"/></g></g></svg>